<svg width="126" height="126" viewBox="0 0 126 126" fill="none" xmlns="http://www.w3.org/2000/svg">
<path fill-rule="evenodd" clip-rule="evenodd" d="M126 63C126 28.2061 97.7939 0 63 0C28.2061 0 0 28.2061 0 63C0 97.7939 28.2061 126 63 126C97.7939 126 126 97.7939 126 63ZM63.5 9.5C40.5408 9.5 20.9289 29.1612 20.9287 54.8086C20.9287 55.5547 20.9454 56.2967 20.9785 57.0342C44.7721 66.033 61.9764 90.5315 62.9092 116.999H62.9609C63.9079 90.1433 81.6807 65.314 106.035 56.6475C106.058 56.0374 106.071 55.4245 106.071 54.8086C106.071 29.1612 86.4592 9.5 63.5 9.5ZM117 63C92.4582 67.1508 73.3964 90.8578 72.0029 116.252C97.5408 111.966 117 89.7559 117 63ZM9 63C9 89.7102 28.3928 111.89 53.8662 116.229C52.4635 90.8439 33.5346 67.1496 9 63Z" fill="black"/>
</svg>
